<svg version="1.1" xmlns="http://www.w3.org/2000/svg" xmlns:xlink="http://www.w3.org/1999/xlink" width="48px" height="48px" viewBox="0,0,256,256"><g fill="none" fill-rule="nonzero" stroke="none" stroke-width="none" stroke-linecap="none" stroke-linejoin="none" stroke-miterlimit="10" stroke-dasharray="" stroke-dashoffset="0" font-family="none" font-weight="none" font-size="none" text-anchor="none" style="mix-blend-mode: normal"><g transform="scale(5.33333,5.33333)"><path d="M46,34.1c0,1.6 -1.3,2.9 -2.9,2.9h-30.2c-1.6,0 -2.9,-1.3 -2.9,-2.9v-20.2c0,-1.6 1.3,-2.9 2.9,-2.9h30.2c1.6,0 2.9,1.3 2.9,2.9z" fill="#ba77ca" stroke="none" stroke-width="1" stroke-linecap="butt" stroke-linejoin="miter"></path><path d="M13.2,33.5h-4.7c-1.7,0 -3,-1.3 -3,-3v-13.5v-6.1v-1.4c0,-1.7 1.3,-3 3,-3h13.5" fill="none" stroke="#000000" stroke-width="3" stroke-linecap="round" stroke-linejoin="round"></path><path d="M42.5,23.9v3.9v2.7c0,1.7 -1.3,3 -3,3h-20.8" fill="none" stroke="#000" stroke-width="3" stroke-linecap="round" stroke-linejoin="round"></path><path d="M14.5,41.5h19" fill="none" stroke="#000" stroke-width="3" stroke-linecap="round" stroke-linejoin="round"></path><path d="M29.3,33.5l1.1,8" fill="none" stroke="#000" stroke-width="3" stroke-linecap="round" stroke-linejoin="round"></path><path d="M18.7,33.5l-1.1,8" fill="none" stroke="#000" stroke-width="3" stroke-linecap="round" stroke-linejoin="round"></path><path d="M10.2,27.5h32.3" fill="none" stroke="#000" stroke-width="3" stroke-linecap="round" stroke-linejoin="round"></path><path d="M42.4,18.6l0.5,0.2c0.3,0.1 0.6,0 0.8,-0.2c0.9,-1 1.6,-2.2 2,-3.5c0.1,-0.3 0,-0.6 -0.2,-0.8l-0.5,-0.4c-0.6,-0.5 -1,-1.3 -1,-2.1c0,-0.8 0.4,-1.6 1,-2.1l0.5,-0.4c0.2,-0.2 0.3,-0.5 0.2,-0.8c-0.4,-1.3 -1.1,-2.5 -2,-3.5c-0.2,-0.2 -0.5,-0.3 -0.8,-0.2l-0.5,0.2c-0.4,0.2 -0.9,0.2 -1.4,0.2c-1.2,-0.2 -2,-1.1 -2.2,-2.2l-0.1,-0.7c-0.1,-0.3 -0.3,-0.6 -0.6,-0.6c-0.6,-0.1 -1.3,-0.2 -2,-0.2c-0.7,0 -1.4,0.1 -2,0.2" fill="none" stroke="#000" stroke-width="3" stroke-linecap="round" stroke-linejoin="round"></path><path d="M29.7,5.1l-0.5,-0.2c-0.3,-0.1 -0.6,0 -0.8,0.2c-0.9,1 -1.6,2.2 -2,3.5c-0.1,0.3 0,0.6 0.2,0.8l0.5,0.4c0.6,0.5 1,1.3 1,2.1c0,0.8 -0.4,1.6 -1,2.1l-0.5,0.4c-0.2,0.2 -0.3,0.5 -0.2,0.8c0.4,1.3 1.1,2.5 2,3.5c0.2,0.2 0.5,0.3 0.8,0.2l0.5,-0.2c0.4,-0.2 0.9,-0.2 1.4,-0.2c1.2,0.2 2,1.1 2.2,2.2l0.1,0.6c0.1,0.3 0.3,0.6 0.6,0.6c0.6,0.1 1.3,0.2 2,0.2c0.7,0 1.4,-0.1 2,-0.2" fill="none" stroke="#000000" stroke-width="3" stroke-linecap="round" stroke-linejoin="round"></path><circle cx="36" cy="11.9" r="2.7" fill="none" stroke="#000" stroke-width="3" stroke-linecap="butt" stroke-linejoin="miter"></circle></g></g></svg>